<svg width="1408" height="722" viewBox="0 0 1408 722" fill="none" xmlns="http://www.w3.org/2000/svg">
  <path d="M1393.47 130.028C1384.77 114.705 1372.56 101.631 1357.83 91.863C1343.09 82.0953 1326.25 75.9088 1308.65 73.8046C1291.06 71.7003 1273.22 73.7374 1256.56 79.751C1239.91 85.7645 1224.92 95.5853 1212.8 108.418C1200.69 121.251 1191.79 136.736 1186.82 153.618C1181.86 170.5 1180.97 188.306 1184.22 205.593C1187.48 222.88 1194.8 239.162 1205.57 253.122C1216.35 267.081 1230.29 278.326 1246.26 285.945L1267.3 242.508C1258.2 238.168 1250.26 231.762 1244.12 223.809C1237.98 215.856 1233.81 206.58 1231.96 196.732C1230.1 186.883 1230.61 176.74 1233.44 167.122C1236.26 157.504 1241.33 148.683 1248.24 141.372C1255.14 134.061 1263.68 128.466 1273.17 125.04C1282.65 121.614 1292.82 120.453 1302.84 121.652C1312.87 122.851 1322.46 126.375 1330.86 131.94C1339.25 137.505 1346.21 144.953 1351.16 153.682L1393.47 130.028Z" fill="#6070FF" />
  <path d="M247.496 705.783C249.836 703.017 251.487 699.743 252.315 696.226C253.142 692.709 253.124 689.048 252.261 685.539C251.398 682.031 249.715 678.773 247.348 676.031C244.98 673.288 241.996 671.137 238.635 669.752C235.274 668.367 231.632 667.787 228.003 668.059C224.375 668.331 220.862 669.447 217.748 671.317C214.635 673.187 212.01 675.758 210.084 678.823C208.158 681.887 206.987 685.358 206.664 688.956L216.597 689.833C216.781 687.783 217.448 685.805 218.545 684.06C219.642 682.314 221.138 680.849 222.912 679.784C224.685 678.718 226.687 678.082 228.754 677.928C230.821 677.773 232.896 678.103 234.811 678.892C236.725 679.681 238.426 680.907 239.775 682.469C241.123 684.032 242.082 685.887 242.574 687.886C243.065 689.885 243.076 691.971 242.604 693.974C242.132 695.978 241.192 697.843 239.859 699.419L247.496 705.783Z" fill="#EBEBFF" />
  <rect width="205.162" height="47.0894" transform="matrix(0.867654 -0.497168 0.502837 0.864381 1119.83 102)" fill="#EBEBFF" />
  <rect width="162.44" height="28.9095" transform="matrix(0.919253 0.393668 -0.398717 0.917074 702.125 631)" fill="#EBEBFF" />
  <rect width="56.4184" height="10.0238" transform="matrix(0.977729 -0.209874 -0.212926 -0.977068 663.649 142.572)" fill="#6070FF" />
  <rect width="109.065" height="19.5172" transform="matrix(0.695597 -0.718432 0.723664 0.690152 0 99.9232)" fill="#EBEBFF" />
  <ellipse cx="834.179" cy="662.5" rx="23.6783" ry="23.5" fill="#6070FF" />
  <ellipse cx="690.095" cy="149.5" rx="11.5872" ry="11.5" fill="#EBEBFF" />
  <path d="M1223.11 562.5C1223.11 582.931 1206.42 599.5 1185.83 599.5C1165.23 599.5 1148.54 582.931 1148.54 562.5C1148.54 542.069 1165.23 525.5 1185.83 525.5C1206.42 525.5 1223.11 542.069 1223.11 562.5Z" fill="white" stroke="#EBEBFF" />
  <path d="M976.253 53.5C976.253 43.0101 967.684 34.5 957.105 34.5C946.526 34.5 937.957 43.0101 937.957 53.5C937.957 63.9899 946.526 72.5 957.105 72.5C967.684 72.5 976.253 63.9899 976.253 53.5Z" fill="white" stroke="#EBEBFF" />
  <path d="M361.625 53.5C361.625 57.3624 358.469 60.5 354.568 60.5C350.667 60.5 347.511 57.3624 347.511 53.5C347.511 49.6376 350.667 46.5 354.568 46.5C358.469 46.5 361.625 49.6376 361.625 53.5Z" fill="white" stroke="#EBEBFF" />
  <path d="M61.3644 404.5C61.3644 398.428 56.4041 393.5 50.2772 393.5C44.1503 393.5 39.1899 398.428 39.1899 404.5C39.1899 410.572 44.1503 415.5 50.2772 415.5C56.4041 415.5 61.3644 410.572 61.3644 404.5Z" fill="white" stroke="#EBEBFF" />
  <path d="M46.7344 73.0741C42.512 82.8892 42.3912 93.967 46.3985 103.87C50.4058 113.774 58.2129 121.692 68.1025 125.883C77.992 130.073 89.1539 130.193 99.1325 126.216C109.111 122.239 117.089 114.49 121.312 104.675L46.7344 73.0741Z" fill="#6070FF" />
  <path d="M222.227 650C221.89 654.881 223.521 659.695 226.76 663.383C230 667.071 234.583 669.331 239.501 669.666C244.419 670 249.27 668.381 252.986 665.166C256.702 661.951 258.979 657.403 259.316 652.521L222.227 650Z" fill="#6070FF" />
</svg>